<svg version="1.0" xmlns="http://www.w3.org/2000/svg"
 width="32" height="32" viewBox="0 0 291.000000 291.000000"
 preserveAspectRatio="xMidYMid meet">

<g transform="translate(0.000000,291.000000) scale(0.100000,-0.100000)"
fill="#000000" stroke="none">
<path d="M1325 2904 c-664 -71 -1182 -547 -1301 -1195 -24 -128 -24 -380 0
-509 109 -598 571 -1060 1176 -1176 128 -24 378 -24 509 0 523 96 945 457
1120 958 102 293 102 653 0 946 -175 499 -602 865 -1115 957 -90 16 -315 27
-389 19z m363 -288 c697 -149 1111 -857 892 -1525 -76 -235 -226 -441 -429
-590 -77 -56 -251 -151 -278 -151 -7 0 -14 34 -18 88 -24 343 -27 352 -95 419
l-31 30 60 7 c285 32 494 197 556 441 20 79 20 236 -1 306 -23 77 -65 157
-118 221 l-46 57 0 138 c0 76 -3 155 -7 177 l-6 39 -56 -6 c-63 -5 -177 -49
-262 -101 l-56 -34 -54 14 c-125 33 -399 33 -528 0 l-61 -15 -65 40 c-78 49
-214 99 -272 99 -41 0 -42 0 -60 -52 -20 -60 -24 -234 -6 -278 10 -23 5 -31
-58 -96 -127 -132 -162 -257 -120 -424 33 -134 82 -223 170 -311 114 -114 252
-181 437 -212 l77 -13 -37 -22 c-22 -13 -43 -36 -51 -57 -13 -29 -23 -37 -67
-50 -116 -34 -208 -11 -274 71 -82 100 -110 128 -149 145 -44 21 -92 24 -115
9 -12 -9 -9 -15 20 -40 83 -71 103 -95 145 -179 50 -100 92 -142 170 -168 51
-17 189 -22 233 -9 l22 7 0 -123 c0 -68 -4 -129 -9 -137 -8 -12 -22 -10 -88
14 -339 120 -610 400 -723 746 -228 698 238 1435 973 1539 86 12 297 4 385
-14z"/>
</g>
</svg>
